<svg xmlns="http://www.w3.org/2000/svg" viewBox="0 0 1400 720" fill="none" aria-hidden="true">
  <g stroke="#0D4E7E" stroke-width="1.15" stroke-linecap="round" opacity="0.14">
    <line x1="120" y1="90" x2="260" y2="160"/>
    <line x1="260" y1="160" x2="340" y2="280"/>
    <line x1="120" y1="90" x2="180" y2="240"/>
    <line x1="180" y1="240" x2="340" y2="280"/>
    <line x1="180" y1="240" x2="90" y2="380"/>
    <line x1="90" y1="380" x2="240" y2="480"/>
    <line x1="240" y1="480" x2="380" y2="420"/>
    <line x1="340" y1="280" x2="380" y2="420"/>
    <line x1="340" y1="280" x2="520" y2="200"/>
    <line x1="520" y1="200" x2="680" y2="260"/>
    <line x1="680" y1="260" x2="820" y2="180"/>
    <line x1="680" y1="260" x2="760" y2="400"/>
    <line x1="760" y1="400" x2="920" y2="340"/>
    <line x1="920" y1="340" x2="1080" y2="420"/>
    <line x1="1080" y1="420" x2="1240" y2="320"/>
    <line x1="820" y1="180" x2="980" y2="120"/>
    <line x1="980" y1="120" x2="1140" y2="200"/>
    <line x1="1140" y1="200" x2="1240" y2="320"/>
    <line x1="520" y1="200" x2="480" y2="520"/>
    <line x1="480" y1="520" x2="640" y2="580"/>
    <line x1="640" y1="580" x2="760" y2="400"/>
    <line x1="640" y1="580" x2="880" y2="560"/>
    <line x1="880" y1="560" x2="1080" y2="420"/>
    <line x1="880" y1="560" x2="1040" y2="620"/>
    <line x1="1040" y1="620" x2="1240" y2="560"/>
    <line x1="1240" y1="320" x2="1320" y2="480"/>
    <line x1="1320" y1="480" x2="1240" y2="560"/>
    <line x1="240" y1="480" x2="480" y2="520"/>
    <line x1="90" y1="380" x2="60" y2="560"/>
    <line x1="60" y1="560" x2="240" y2="620"/>
    <line x1="240" y1="620" x2="480" y2="520"/>
    <line x1="260" y1="160" x2="420" y2="80"/>
    <line x1="420" y1="80" x2="520" y2="200"/>
    <line x1="1140" y1="200" x2="1280" y2="100"/>
    <line x1="760" y1="400" x2="920" y2="520"/>
    <line x1="920" y1="520" x2="1040" y2="620"/>
  </g>

  <g fill="#238DA5" opacity="0.22">
    <circle cx="120" cy="90" r="4.5"/>
    <circle cx="260" cy="160" r="3.5"/>
    <circle cx="340" cy="280" r="5"/>
    <circle cx="180" cy="240" r="3"/>
    <circle cx="90" cy="380" r="4"/>
    <circle cx="240" cy="480" r="5"/>
    <circle cx="380" cy="420" r="3.5"/>
    <circle cx="520" cy="200" r="4"/>
    <circle cx="680" cy="260" r="5"/>
    <circle cx="820" cy="180" r="3.5"/>
    <circle cx="760" cy="400" r="4.5"/>
    <circle cx="920" cy="340" r="3"/>
    <circle cx="1080" cy="420" r="5"/>
    <circle cx="1240" cy="320" r="4"/>
    <circle cx="480" cy="520" r="3.5"/>
    <circle cx="640" cy="580" r="4"/>
    <circle cx="880" cy="560" r="5"/>
    <circle cx="1040" cy="620" r="3.5"/>
    <circle cx="60" cy="560" r="3"/>
    <circle cx="240" cy="620" r="4"/>
    <circle cx="420" cy="80" r="3.5"/>
    <circle cx="980" cy="120" r="4"/>
    <circle cx="1140" cy="200" r="3.5"/>
    <circle cx="1280" cy="100" r="3"/>
    <circle cx="1320" cy="480" r="4"/>
    <circle cx="1240" cy="560" r="3.5"/>
    <circle cx="920" cy="520" r="3"/>
  </g>

  <g stroke="#0B8F44" stroke-width="1.4" fill="none" opacity="0.16">
    <circle cx="520" cy="200" r="11"/>
    <circle cx="760" cy="400" r="14"/>
    <circle cx="1080" cy="420" r="10"/>
    <circle cx="240" cy="480" r="12"/>
    <circle cx="680" cy="260" r="9"/>
    <circle cx="880" cy="560" r="11"/>
    <circle cx="340" cy="280" r="8"/>
    <circle cx="1240" cy="320" r="13"/>
  </g>

  <g fill="#0D4E7E" opacity="0.08">
    <circle cx="680" cy="260" r="22"/>
    <circle cx="760" cy="400" r="28"/>
    <circle cx="1080" cy="420" r="20"/>
    <circle cx="180" cy="240" r="18"/>
  </g>
</svg>
